<?xml version="1.0" encoding="UTF-8" standalone="no"?>
<!DOCTYPE svg PUBLIC "-//W3C//DTD SVG 1.1//EN" "http://www.w3.org/Graphics/SVG/1.1/DTD/svg11.dtd">
<svg width="100%" height="100%" viewBox="0 0 1000 1707" version="1.1" xmlns="http://www.w3.org/2000/svg" xmlns:xlink="http://www.w3.org/1999/xlink" xml:space="preserve" xmlns:serif="http://www.serif.com/" style="fill-rule:evenodd;clip-rule:evenodd;stroke-linejoin:round;stroke-miterlimit:2;">
    <g transform="matrix(4.73934,0,0,4.73934,0,0)">
        <path d="M13.492,255.208L52.529,256.67L69.886,352.797L13.492,255.208Z" style="fill:rgb(245,0,19);"/>
    </g>
    <g transform="matrix(4.73934,0,0,4.73934,0,0)">
        <path d="M52.529,256.67L201.345,202.276L131.933,296.418L52.529,256.67Z" style="fill:rgb(245,0,19);"/>
    </g>
    <g transform="matrix(4.73934,0,0,4.73934,0,0)">
        <path d="M131.933,296.418L69.886,352.797L52.529,256.67L131.933,296.418Z" style="fill:rgb(224,0,27);"/>
    </g>
    <g transform="matrix(4.73934,0,0,4.73934,0,0)">
        <path d="M69.886,352.797L131.933,296.418L176.534,298.422L69.886,352.797Z" style="fill:rgb(196,0,75);"/>
    </g>
    <g transform="matrix(4.73934,0,0,4.73934,0,0)">
        <path d="M201.345,202.276L176.534,298.422L131.933,296.418L201.345,202.276Z" style="fill:rgb(229,0,31);"/>
    </g>
    <g transform="matrix(4.73934,0,0,4.73934,0,0)">
        <path d="M52.529,256.67L147.747,176.713L201.345,202.276L52.529,256.67Z" style="fill:rgb(255,67,0);"/>
    </g>
    <g transform="matrix(4.73934,0,0,4.73934,0,0)">
        <path d="M62.859,165.034L52.529,256.67L147.747,176.713L62.859,165.034Z" style="fill:rgb(255,99,0);"/>
    </g>
    <g transform="matrix(4.73934,0,0,4.73934,0,0)">
        <path d="M52.529,256.67L13.492,255.208L62.859,165.034L52.529,256.67Z" style="fill:rgb(255,135,0);"/>
    </g>
    <g transform="matrix(4.73934,0,0,4.73934,0,0)">
        <path d="M147.747,176.713L114.624,87.859L201.345,202.276L147.747,176.713Z" style="fill:rgb(255,133,0);"/>
    </g>
    <g transform="matrix(4.73934,0,0,4.73934,0,0)">
        <path d="M69.886,96.514L62.859,165.034L147.747,176.713L69.886,96.514Z" style="fill:rgb(255,137,0);"/>
    </g>
    <g transform="matrix(4.73934,0,0,4.73934,0,0)">
        <path d="M114.624,87.859L147.747,176.713L69.886,96.514L114.624,87.859Z" style="fill:rgb(255,154,0);"/>
    </g>
    <g transform="matrix(4.73934,0,0,4.73934,0,0)">
        <path d="M50.457,85.625L69.886,96.514L62.859,165.034L50.457,85.625Z" style="fill:rgb(255,154,0);"/>
    </g>
    <g transform="matrix(4.73934,0,0,4.73934,0,0)">
        <path d="M90.069,7.241L114.624,87.859L69.886,96.514L90.069,7.241Z" style="fill:rgb(255,184,0);"/>
    </g>
    <g transform="matrix(4.73934,0,0,4.73934,0,0)">
        <path d="M50.457,85.625L69.886,96.514L90.069,7.241L50.457,85.625Z" style="fill:rgb(255,205,0);"/>
    </g>
</svg>
