<?xml version="1.0" encoding="UTF-8" standalone="no"?>
<!DOCTYPE svg PUBLIC "-//W3C//DTD SVG 1.1//EN" "http://www.w3.org/Graphics/SVG/1.1/DTD/svg11.dtd">
<svg width="100%" height="100%" viewBox="0 0 465 465" version="1.1" xmlns="http://www.w3.org/2000/svg" xmlns:xlink="http://www.w3.org/1999/xlink" xml:space="preserve" xmlns:serif="http://www.serif.com/" style="fill-rule:evenodd;clip-rule:evenodd;stroke-linecap:round;stroke-linejoin:round;stroke-miterlimit:1.5;">
    <g transform="matrix(1,0,0,1,-287,-260)">
        <circle cx="335.934" cy="434.161" r="23.521" style="fill:rgb(75,200,244);"/>
        <circle cx="346.599" cy="382.908" r="11.587" style="fill:rgb(254,208,148);"/>
        <circle cx="381.069" cy="356.747" r="12.348" style="fill:rgb(212,106,254);"/>
        <circle cx="305.092" cy="329.442" r="12.839" style="fill:rgb(205,239,251);"/>
        <circle cx="699.141" cy="302.508" r="7.443" style="fill:rgb(233,245,221);"/>
        <circle cx="699.082" cy="357.697" r="6.178" style="fill:rgb(245,220,253);"/>
        <circle cx="664.436" cy="477.359" r="10.804" style="fill:rgb(236,186,255);"/>
        <circle cx="677.782" cy="410.357" r="13.986" style="fill:rgb(143,215,70);"/>
        <circle cx="636.576" cy="358.274" r="18.773" style="fill:rgb(255,174,72);"/>
        <ellipse cx="569.798" cy="279.554" rx="3.512" ry="3.455" style="fill:rgb(254,234,103);"/>
        <circle cx="491.263" cy="293.627" r="17.528" style="fill:rgb(103,201,0);"/>
        <g>
            <path d="M415.811,394.854C417.075,415.512 429.564,433.15 447.277,441.705C444.433,448.797 442.879,456.535 442.879,464.633C442.879,470.713 443.755,476.59 445.405,482.143L443.475,482.045C433.671,482.541 425.383,484.609 416.541,488.872L415.064,489.769C392.517,485.786 375.383,466.062 375.383,442.368C375.383,418.416 392.892,398.522 415.811,394.854Z" style="fill:rgb(112,191,2);"/>
            <g transform="matrix(1,0,0,1,-5.55105,4.23603)">
                <path d="M525.163,357.726C534.383,344.521 549.698,335.894 567.013,335.894C595.226,335.894 618.132,358.8 618.132,387.013C618.132,404.085 609.745,419.214 596.838,428.46C588.361,429.385 580.577,432.627 574.161,437.574L572.236,437.868L568.399,438.062C561.928,421.286 548.373,408.025 531.406,401.955C532.78,397.208 533.483,392.192 533.483,387.013C533.483,376.272 530.46,366.231 525.163,357.726Z" style="fill:rgb(255,167,44);"/>
            </g>
            <g transform="matrix(1,0,0,1,3.87479,12.4478)">
                <path d="M411.885,382.414L411.754,378.801C411.754,347.811 436.914,322.65 467.905,322.65C488.155,322.65 505.915,333.392 515.737,349.515C509.886,357.796 506.468,367.903 506.468,378.801C506.468,382.842 506.937,386.773 507.876,390.532C505.644,390.243 503.372,390.118 501.071,390.118C485.73,390.118 471.681,395.696 460.874,404.963C452.464,391.022 437.163,381.722 419.707,381.722C417.041,381.722 414.426,381.939 411.885,382.414Z" style="fill:rgb(254,220,0);"/>
            </g>
            <g transform="matrix(1,0,0,1,3.87479,12.4478)">
                <path d="M411.885,382.414C414.426,381.939 417.041,381.722 419.707,381.722C437.163,381.722 452.464,391.022 460.874,404.963C453.209,411.447 447.17,419.779 443.403,429.258C425.685,420.697 413.183,403.068 411.885,382.414Z" style="fill:rgb(255,209,1);"/>
            </g>
            <g transform="matrix(1,0,0,1,3.87479,12.4478)">
                <path d="M515.737,349.515C521.034,358.019 524.057,368.06 524.057,378.801C524.057,383.98 523.354,388.996 521.98,393.744C517.498,392.131 512.775,391.024 507.876,390.532C506.937,386.773 506.468,382.842 506.468,378.801C506.468,367.903 509.886,357.796 515.737,349.515Z" style="fill:rgb(255,152,1);"/>
            </g>
            <g transform="matrix(0.799986,0,0,0.799986,125.802,102.765)">
                <path d="M581.864,412.422C583.939,412.171 586.049,412.054 588.185,412.054C619.822,412.054 645.508,437.739 645.508,469.377C645.508,501.014 619.822,526.699 588.185,526.699L584.599,526.518C578.737,512.065 566.093,501.085 550.615,497.558C549.614,496.111 548.522,494.703 547.346,493.339C545.841,491.596 544.245,489.979 542.53,488.529C548.283,477.737 551.523,465.415 551.523,452.342C551.523,444.095 550.233,436.146 547.833,428.694C549.609,426.93 551.499,425.283 553.527,423.812C564.009,422.365 573.677,418.365 581.864,412.422Z" style="fill:rgb(170,234,23);"/>
            </g>
            <g transform="matrix(0.799986,0,0,0.799986,125.802,102.765)">
                <path d="M581.864,412.422C573.681,418.384 564.017,422.413 553.527,423.812C561.55,417.628 571.272,413.565 581.864,412.422Z" style="fill:rgb(255,159,0);"/>
            </g>
            <g transform="matrix(0.88939,0,0,0.88939,58.1915,65.086)">
                <path d="M578.912,508.922C585.687,512.988 593.491,515.499 601.837,515.956C603.939,521.013 605.078,526.559 605.078,532.37C605.078,556.442 585.534,575.986 561.462,575.986C558.253,575.986 555.124,575.639 552.116,574.955C547.174,569.541 541.179,565.111 534.434,562.025C544.786,561.846 555.134,558.179 563.578,550.892C576.053,540.127 581.321,524.094 578.912,508.922Z" style="fill:rgb(1,119,193);"/>
            </g>
            <g transform="matrix(0.88939,0,0,0.88939,58.1915,65.086)">
                <path d="M578.912,508.922C577.878,502.242 575.342,495.731 571.285,489.907C585.203,493.089 596.58,502.954 601.837,515.956C593.498,515.456 585.694,512.966 578.912,508.922Z" style="fill:rgb(0,107,1);"/>
            </g>
            <g transform="matrix(0.915964,0,0,0.915964,38.2081,56.4674)">
                <path d="M557.941,567.691C566.906,577.366 572.365,590.324 572.365,604.548C572.365,634.638 547.935,659.067 517.845,659.067C487.756,659.067 463.326,634.638 463.326,604.548C463.326,596.667 465.002,589.175 468.052,582.425C480.853,576.607 491.306,566.527 497.556,553.978C503.82,551.417 510.672,550.029 517.845,550.029L519.36,550.105C524.522,552.796 530.125,554.418 535.828,554.931C541.596,561.265 549.269,565.82 557.941,567.691Z" style="fill:rgb(219,94,30);"/>
            </g>
            <g transform="matrix(0.915964,0,0,0.915964,38.2081,56.4674)">
                <path d="M535.828,554.931C537.461,555.097 539.103,555.158 540.746,555.129C547.293,558.149 553.136,562.434 557.941,567.691C549.271,565.811 541.59,561.268 535.828,554.931Z" style="fill:rgb(3,5,1);"/>
            </g>
            <g transform="matrix(1,0,0,1,2.78436,11.8712)">
                <path d="M443.521,472.992C450.498,493.336 467.795,508.896 489.148,513.448C489.359,521.189 491.769,528.909 496.446,535.602C495.536,541.432 493.731,546.967 491.129,552.034C479.084,556.864 469.362,566.263 464.133,578.096C457.004,581.403 449.058,583.225 440.69,583.225C409.493,583.225 384.165,557.897 384.165,526.699C384.165,505.869 395.457,487.655 412.28,477.898C415.042,478.438 417.89,478.696 420.797,478.696C429.014,478.696 436.754,476.635 443.521,472.992Z" style="fill:rgb(206,84,255);"/>
            </g>
            <g transform="matrix(1,0,0,1,2.78436,11.8712)">
                <path d="M412.28,477.898C420.605,472.971 430.323,470.174 440.69,470.174L442.62,470.272L443.521,472.992C436.754,476.635 429.014,478.696 420.797,478.696C417.89,478.696 415.042,478.438 412.28,477.898Z" style="fill:rgb(143,27,255);"/>
            </g>
            <g transform="matrix(1,0,0,1,2.78436,11.8712)">
                <path d="M491.129,552.034C488.266,557.78 484.446,562.965 479.878,567.378C475.31,571.792 469.992,575.435 464.133,578.096C469.371,566.264 479.083,556.853 491.129,552.034Z" style="fill:rgb(85,14,40);"/>
            </g>
            <g transform="matrix(5.23904,0,0,5.23904,-2140.48,-1969.6)">
                <path d="M507.745,456.216C509.505,458.736 512.428,460.383 515.733,460.383L515.998,460.37L516.073,460.561L516.229,461.022C514.629,462.606 513.638,464.805 513.638,467.234C513.638,467.865 513.705,468.48 513.836,469.073C511.095,467.642 507.641,467.941 505.158,470.084C503.983,471.097 503.185,472.386 502.78,473.774C501.176,470.681 498.115,468.466 494.507,468.041C496.732,466.561 498.276,464.136 498.565,461.341L498.615,461.343C502.48,461.343 505.87,459.293 507.745,456.216Z" style="fill:rgb(0,190,242);"/>
            </g>
            <g transform="matrix(5.23904,0,0,5.23904,-2140.48,-1969.6)">
                <path d="M493.665,468.213L493.757,468.491L493.751,468.495L493.665,468.213Z" style="fill:rgb(0,190,242);"/>
            </g>
            <g transform="matrix(5.23904,0,0,5.23904,-2140.48,-1969.6)">
                <path d="M493.961,460.205L493.941,460.257C495.249,460.861 496.554,461.201 497.99,461.325L498.56,461.342C498.274,464.142 496.726,466.571 494.492,468.047L494.33,468.025L493.593,467.976C493.267,466.918 493.099,465.795 493.099,464.633C493.099,463.087 493.396,461.609 493.941,460.257L493.938,460.256L493.961,460.205C494.059,459.955 494.168,459.711 494.285,459.471L493.961,460.205Z" style="fill:rgb(0,169,0);"/>
            </g>
            <g transform="matrix(5.23904,0,0,5.23904,-2140.48,-1969.6)">
                <path d="M494.658,458.769L494.319,459.404L494.514,459.019L494.658,458.769Z" style="fill:rgb(0,190,242);"/>
            </g>
            <g transform="matrix(5.23904,0,0,5.23904,-2140.48,-1969.6)">
                <path d="M495.146,457.983L494.748,458.613L494.829,458.471L495.146,457.983Z" style="fill:rgb(0,190,242);"/>
            </g>
            <g transform="matrix(5.23904,0,0,5.23904,-2140.48,-1969.6)">
                <path d="M495.61,457.351L495.213,457.887L495.543,457.434L495.61,457.351Z" style="fill:rgb(0,190,242);"/>
            </g>
            <g transform="matrix(5.23904,0,0,5.23904,-2140.48,-1969.6)">
                <path d="M496.078,456.793L495.827,457.084L495.939,456.946L496.078,456.793Z" style="fill:rgb(0,190,242);"/>
            </g>
            <g transform="matrix(5.23904,0,0,5.23904,-2140.48,-1969.6)">
                <path d="M497.273,455.619L497.245,455.644L497.273,455.619L497.273,455.619Z" style="fill:rgb(0,190,242);"/>
            </g>
            <g transform="matrix(5.23904,0,0,5.23904,-2140.48,-1969.6)">
                <path d="M508.935,453.483C512.176,454.636 514.763,457.167 515.998,460.37L515.733,460.383C512.426,460.383 509.501,458.734 507.747,456.21C508.268,455.373 508.669,454.456 508.935,453.483Z" style="fill:rgb(255,137,33);"/>
            </g>
            <g transform="matrix(5.23904,0,0,5.23904,-2140.48,-1969.6)">
                <path d="M508.669,453.384L508.833,453.445L508.185,453.243L508.669,453.384Z" style="fill:rgb(0,190,242);"/>
            </g>
            <g transform="matrix(5.23904,0,0,5.23904,-2140.48,-1969.6)">
                <path d="M507.05,452.975C507.199,453.001 507.346,453.031 507.493,453.063C507.64,453.095 507.786,453.13 507.93,453.168L507.05,452.975Z" style="fill:rgb(0,190,242);"/>
            </g>
            <g transform="matrix(5.23904,0,0,5.23904,-2140.48,-1969.6)">
                <path d="M506.722,452.927L506.245,452.865L506.243,452.858L506.722,452.927Z" style="fill:rgb(0,190,242);"/>
            </g>
            <g transform="matrix(5.23904,0,0,5.23904,-2140.48,-1969.6)">
                <path d="M497.273,455.619C499.336,453.85 502.017,452.786 504.946,452.786C505.385,452.786 505.819,452.81 506.245,452.865C506.529,454.086 507.044,455.218 507.747,456.21C505.875,459.29 502.483,461.343 498.615,461.343L498.56,461.342C498.599,461.027 498.615,460.707 498.615,460.383C498.615,458.637 498.128,457.005 497.273,455.619Z" style="fill:rgb(1,180,0);"/>
            </g>
            <g transform="matrix(5.23904,0,0,5.23904,-2140.48,-1969.6)">
                <path d="M494.319,459.404L494.285,459.471L494.294,459.451L494.319,459.404Z" style="fill:rgb(0,190,242);"/>
            </g>
            <g transform="matrix(5.23904,0,0,5.23904,-2140.48,-1969.6)">
                <path d="M494.748,458.613L494.658,458.769L494.706,458.679L494.748,458.613Z" style="fill:rgb(0,190,242);"/>
            </g>
            <g transform="matrix(5.23904,0,0,5.23904,-2140.48,-1969.6)">
                <path d="M495.172,457.943L495.146,457.983L495.172,457.942L495.213,457.887L495.172,457.943Z" style="fill:rgb(0,190,242);"/>
            </g>
            <g transform="matrix(5.23904,0,0,5.23904,-2140.48,-1969.6)">
                <path d="M495.827,457.084L495.61,457.351L495.69,457.243L495.827,457.084Z" style="fill:rgb(0,190,242);"/>
            </g>
            <g transform="matrix(5.23904,0,0,5.23904,-2140.48,-1969.6)">
                <path d="M496.354,456.487L496.078,456.793L496.256,456.585L496.354,456.487Z" style="fill:rgb(0,190,242);"/>
            </g>
            <g transform="matrix(5.23904,0,0,5.23904,-2140.48,-1969.6)">
                <path d="M496.805,456.037L496.427,456.413L496.869,455.97L497.245,455.644L496.805,456.037Z" style="fill:rgb(0,190,242);"/>
            </g>
            <g transform="matrix(5.23904,0,0,5.23904,-2140.48,-1969.6)">
                <path d="M508.937,453.478L508.935,453.483L508.833,453.445L508.937,453.478Z" style="fill:rgb(0,190,242);"/>
            </g>
            <g transform="matrix(5.23904,0,0,5.23904,-2140.48,-1969.6)">
                <path d="M507.984,453.18L508.185,453.243L507.93,453.168L507.984,453.18Z" style="fill:rgb(0,190,242);"/>
            </g>
            <g transform="matrix(5.23904,0,0,5.23904,-2140.48,-1969.6)">
                <path d="M506.999,452.963L507.05,452.975L506.722,452.927L506.999,452.963Z" style="fill:rgb(0,190,242);"/>
            </g>
            <g transform="matrix(5.23904,0,0,5.23904,-2140.48,-1969.6)">
                <path d="M497.273,455.619C498.128,457.005 498.615,458.637 498.615,460.383C498.615,460.707 498.599,461.027 498.56,461.342C496.902,461.335 495.332,460.949 493.938,460.256L494.285,459.471L494.319,459.404L494.658,458.769L494.748,458.613L495.146,457.983L495.172,457.943L495.213,457.887L495.61,457.351L495.827,457.084L496.078,456.793L496.354,456.487L496.427,456.413L496.805,456.037L497.245,455.644L497.273,455.619Z" style="fill:rgb(0,155,1);"/>
            </g>
            <g transform="matrix(5.23904,0,0,5.23904,-2140.48,-1969.6)">
                <path d="M506.245,452.865L506.722,452.927L507.05,452.975L507.93,453.168L508.185,453.243L508.833,453.445L508.935,453.483C508.669,454.456 508.268,455.373 507.747,456.21C507.044,455.218 506.529,454.085 506.245,452.865Z" style="fill:rgb(248,137,25);"/>
            </g>
            <g transform="matrix(5.23904,0,0,5.23904,-2140.48,-1969.6)">
                <path d="M516.229,461.022C516.596,462.16 516.793,463.373 516.793,464.633C516.793,466.629 516.298,468.51 515.42,470.158C514.932,469.723 514.4,469.359 513.836,469.073C513.705,468.48 513.638,467.865 513.638,467.234C513.638,464.805 514.629,462.606 516.229,461.022Z" style="fill:rgb(0,184,110);"/>
            </g>
            <g transform="matrix(5.23904,0,0,5.23904,-2140.48,-1969.6)">
                <path d="M494.492,468.047C498.106,468.463 501.174,470.678 502.78,473.774C502.543,474.566 502.437,475.392 502.462,476.216C498.386,475.347 495.084,472.377 493.757,468.491L494.283,468.187L494.492,468.047Z" style="fill:rgb(0,26,255);"/>
            </g>
            <g transform="matrix(5.23904,0,0,5.23904,-2140.48,-1969.6)">
                <path d="M493.593,467.976L493.665,468.213L493.587,467.975L493.593,467.976Z" style="fill:rgb(0,190,242);"/>
            </g>
            <g transform="matrix(5.23904,0,0,5.23904,-2140.48,-1969.6)">
                <path d="M494.33,468.025L494.492,468.047L494.283,468.187L493.757,468.491L493.665,468.213L493.593,467.976L494.33,468.025Z" style="fill:rgb(0,16,138);"/>
            </g>
            <g transform="matrix(-1.02937,0.8883,-0.8883,-1.02937,532.745,524.118)">
                <path d="M6.454,5.237C9.525,3.647 12.339,1.447 14.733,-1.327C19.058,-6.34 21.331,-12.433 21.599,-18.576L23.513,-15.82C24.311,-14.886 25.11,-13.952 25.908,-13.017L27.887,-11.127C29.286,-7.691 30.044,-3.933 30.044,0C30.044,1.046 29.99,2.08 29.884,3.099C28.198,4.455 26.634,5.998 25.177,7.686C23.166,10.018 21.459,12.509 20.076,15.125C19.023,14.012 17.904,12.942 16.719,11.92C13.538,9.174 10.084,6.946 6.454,5.237Z" style="fill:rgb(254,220,0);"/>
            </g>
            <g transform="matrix(-1.02937,0.8883,-0.8883,-1.02937,532.745,524.118)">
                <path d="M-27.442,-12.205L-27.169,-12.759L-27.601,-11.815L-27.442,-12.205Z" style="fill:rgb(255,180,4);"/>
            </g>
            <g transform="matrix(-1.02937,0.8883,-0.8883,-1.02937,532.745,524.118)">
                <path d="M-28.217,-10.31L-28.042,-10.736L-28.594,-9.163L-28.217,-10.31Z" style="fill:rgb(255,180,4);"/>
            </g>
            <g transform="matrix(-1.02937,0.8883,-0.8883,-1.02937,532.745,524.118)">
                <path d="M-29.418,-6.078C-29.334,-6.486 -29.243,-6.891 -29.142,-7.293C-29.042,-7.694 -28.934,-8.093 -28.817,-8.487L-29.418,-6.078Z" style="fill:rgb(255,180,4);"/>
            </g>
            <g transform="matrix(-1.02937,0.8883,-0.8883,-1.02937,532.745,524.118)">
                <path d="M-29.742,-4.269L-29.513,-5.546L-29.825,-3.487L-29.742,-4.269Z" style="fill:rgb(255,180,4);"/>
            </g>
            <g transform="matrix(-1.02937,0.8883,-0.8883,-1.02937,532.745,524.118)">
                <path d="M-29.746,3.993C-29.954,2.69 -30.044,1.356 -30.044,0C-30.044,-1.054 -29.989,-2.095 -29.864,-3.119C-28.635,-1.397 -27.175,0.194 -25.507,1.633L-24.598,2.34L-26.858,2.972L-29.746,3.993Z" style="fill:rgb(255,197,61);"/>
            </g>
            <g transform="matrix(-1.02937,0.8883,-0.8883,-1.02937,532.745,524.118)">
                <path d="M-29.486,5.774L-29.741,4.03L-29.287,6.578L-29.486,5.774Z" style="fill:rgb(255,180,4);"/>
            </g>
            <g transform="matrix(-1.02937,0.8883,-0.8883,-1.02937,532.745,524.118)">
                <path d="M-28.805,8.526L-29.174,7.032L-28.616,9.061L-28.805,8.526Z" style="fill:rgb(255,180,4);"/>
            </g>
            <g transform="matrix(-1.02937,0.8883,-0.8883,-1.02937,532.745,524.118)">
                <path d="M-28.196,10.25L-27.859,11.147L-27.871,11.172L-28.196,10.25Z" style="fill:rgb(255,180,4);"/>
            </g>
            <g transform="matrix(-1.02937,0.8883,-0.8883,-1.02937,532.745,524.118)">
                <path d="M-24.577,2.336C-23.2,-3.671 -23.545,-9.959 -25.521,-15.786C-26.132,-14.816 -26.687,-13.807 -27.169,-12.759C-22.393,-22.975 -12.016,-30.044 0,-30.044C7.315,-30.044 14.022,-27.424 19.217,-23.052L20.849,-19.847L21.59,-18.701C21.361,-12.515 19.088,-6.374 14.733,-1.327C12.338,1.448 9.523,3.649 6.452,5.238C-3.333,0.583 -14.357,-0.34 -24.577,2.336Z" style="fill:rgb(255,180,0);"/>
            </g>
            <g transform="matrix(-1.02937,0.8883,-0.8883,-1.02937,532.745,524.118)">
                <path d="M-27.869,-11.231L-27.601,-11.815L-28.042,-10.736L-27.869,-11.231Z" style="fill:rgb(255,180,4);"/>
            </g>
            <g transform="matrix(-1.02937,0.8883,-0.8883,-1.02937,532.745,524.118)">
                <path d="M-28.781,-8.631L-28.594,-9.163L-28.817,-8.487L-28.781,-8.631Z" style="fill:rgb(255,180,4);"/>
            </g>
            <g transform="matrix(-1.02937,0.8883,-0.8883,-1.02937,532.745,524.118)">
                <path d="M-29.455,-5.928L-29.418,-6.078L-29.513,-5.546L-29.455,-5.928Z" style="fill:rgb(255,180,4);"/>
            </g>
            <g transform="matrix(-1.02937,0.8883,-0.8883,-1.02937,532.745,524.118)">
                <path d="M-29.878,-3.136L-29.825,-3.487L-29.864,-3.119L-29.878,-3.136Z" style="fill:rgb(255,180,4);"/>
            </g>
            <g transform="matrix(-1.02937,0.8883,-0.8883,-1.02937,532.745,524.118)">
                <path d="M-24.577,2.336L-24.598,2.34L-25.507,1.633C-27.175,0.194 -28.635,-1.397 -29.864,-3.119L-29.825,-3.487L-29.513,-5.546L-29.418,-6.078L-28.817,-8.487L-28.594,-9.163L-28.042,-10.736L-27.601,-11.815L-27.169,-12.759C-26.687,-13.807 -26.132,-14.816 -25.521,-15.786C-23.545,-9.959 -23.2,-3.671 -24.577,2.336Z" style="fill:rgb(186,130,0);"/>
            </g>
            <g transform="matrix(-1.02937,0.8883,-0.8883,-1.02937,532.745,524.118)">
                <path d="M19.217,-23.052L19.191,-23.102C23.013,-19.927 26.035,-15.822 27.887,-11.127C25.985,-12.855 24.305,-14.74 22.854,-16.748L21.59,-18.701L21.612,-20.83C20.858,-21.617 20.061,-22.362 19.217,-23.052Z" style="fill:rgb(149,72,0);"/>
            </g>
            <g transform="matrix(-1.02937,0.8883,-0.8883,-1.02937,532.745,524.118)">
                <path d="M20.849,-19.847L19.217,-23.052C20.061,-22.362 20.858,-21.617 21.612,-20.83L21.59,-18.701L20.849,-19.847Z" style="fill:rgb(37,61,12);"/>
            </g>
            <g transform="matrix(-1.02937,0.8883,-0.8883,-1.02937,532.745,524.118)">
                <path d="M21.822,17.082C21.291,16.485 20.761,15.887 20.23,15.289L20.069,15.126C21.456,12.512 23.164,10.019 25.177,7.686C26.634,5.998 28.198,4.455 29.884,3.099C29.271,9.072 26.906,14.529 23.29,18.927L21.822,17.082Z" style="fill:rgb(253,148,0);"/>
            </g>
            <g transform="matrix(-1.02937,0.8883,-0.8883,-1.02937,532.745,524.118)">
                <path d="M21.272,21.182L22.245,20.108L21.389,21.075L21.272,21.182Z" style="fill:rgb(255,180,4);"/>
            </g>
            <g transform="matrix(-1.02937,0.8883,-0.8883,-1.02937,532.745,524.118)">
                <path d="M18.889,23.333L19.285,22.981L18.927,23.305L18.889,23.333Z" style="fill:rgb(255,180,4);"/>
            </g>
            <g transform="matrix(-1.02937,0.8883,-0.8883,-1.02937,532.745,524.118)">
                <path d="M18.889,23.333C13.737,27.534 7.159,30.044 0,30.044C-12.64,30.044 -23.467,22.221 -27.859,11.147L-26.327,7.972C-25.932,6.87 -25.538,5.767 -25.144,4.665L-24.582,2.353C-15.53,9.582 -3.289,10.408 6.452,5.238C10.082,6.944 13.537,9.173 16.719,11.92C17.903,12.941 19.021,14.01 20.069,15.126C18.309,18.354 17.035,21.764 16.228,25.253L18.889,23.333Z" style="fill:rgb(255,209,1);"/>
            </g>
            <g transform="matrix(-1.02937,0.8883,-0.8883,-1.02937,532.745,524.118)">
                <path d="M22.245,20.108L23.29,18.927L23.302,18.942L22.245,20.108Z" style="fill:rgb(255,180,4);"/>
            </g>
            <g transform="matrix(-1.02937,0.8883,-0.8883,-1.02937,532.745,524.118)">
                <path d="M19.285,22.981L21.272,21.182L21.106,21.364L19.285,22.981Z" style="fill:rgb(255,180,4);"/>
            </g>
            <g transform="matrix(-1.02937,0.8883,-0.8883,-1.02937,532.745,524.118)">
                <path d="M-29.747,3.994L-29.746,3.993L-29.741,4.03L-29.747,3.994Z" style="fill:rgb(255,180,4);"/>
            </g>
            <g transform="matrix(-1.02937,0.8883,-0.8883,-1.02937,532.745,524.118)">
                <path d="M-29.263,6.708L-29.287,6.578L-29.174,7.032L-29.263,6.708Z" style="fill:rgb(255,180,4);"/>
            </g>
            <g transform="matrix(-1.02937,0.8883,-0.8883,-1.02937,532.745,524.118)">
                <path d="M-28.541,9.333L-28.616,9.061L-28.196,10.25L-28.541,9.333Z" style="fill:rgb(255,180,4);"/>
            </g>
            <g transform="matrix(-1.02937,0.8883,-0.8883,-1.02937,532.745,524.118)">
                <path d="M-24.581,2.353L-25.144,4.665C-25.538,5.767 -25.932,6.87 -26.327,7.972L-27.859,11.147L-28.196,10.25L-28.616,9.061L-29.174,7.032L-29.287,6.578L-29.741,4.03L-29.746,3.993L-26.858,2.972L-24.577,2.335L-24.577,2.336L-24.598,2.34L-24.581,2.353Z" style="fill:rgb(255,180,4);"/>
            </g>
            <g transform="matrix(-1.02937,0.8883,-0.8883,-1.02937,532.745,524.118)">
                <path d="M-24.581,2.353L-24.577,2.336C-19.47,1.001 -14.162,0.562 -8.908,1.038C-3.648,1.515 1.557,2.909 6.452,5.238C-3.292,10.409 -15.536,9.588 -24.581,2.353Z" style="fill:rgb(254,162,0);"/>
            </g>
            <g transform="matrix(-1.02937,0.8883,-0.8883,-1.02937,532.745,524.118)">
                <path d="M-24.577,2.336L-24.581,2.353L-24.598,2.34L-24.577,2.336Z" style="fill:rgb(255,180,4);"/>
            </g>
            <g transform="matrix(-1.02937,0.8883,-0.8883,-1.02937,532.745,524.118)">
                <path d="M18.889,23.333L16.228,25.253C17.035,21.764 18.309,18.354 20.069,15.126L20.23,15.289C20.761,15.887 21.291,16.485 21.822,17.082L23.29,18.927L22.245,20.108L21.272,21.182L19.285,22.981L18.889,23.333Z" style="fill:rgb(255,113,1);"/>
            </g>
        </g>
        <g>
            <path d="M466.918,675.138C486.502,680.347 531.725,681.23 548.653,675.11" style="fill:none;stroke:black;stroke-width:23px;"/>
            <path d="M481.788,711.709C495.468,714.086 519.157,714.557 534.094,711.891" style="fill:none;stroke:black;stroke-width:23px;"/>
            <path d="M441.658,563.623C419.698,548.954 396.518,512.283 397.228,472.184C398.31,411.096 448.785,362.378 509.874,363.46C570.962,364.542 619.68,415.017 618.598,476.105C617.932,513.657 599.201,543.935 576.947,560.358C562.894,570.729 562.789,581.701 561.864,589.743C560.698,599.876 558.443,613.515 557.123,620.862C555.4,630.453 547.16,639.171 536.972,639.171C531.552,639.171 485.157,638.929 477.198,638.845C467.333,638.74 460.541,629.168 458.731,619.633C457.079,610.929 455.695,600.711 454.412,591.597C453.04,581.845 451.828,570.417 441.658,563.623Z" style="fill:none;stroke:black;stroke-width:23px;"/>
        </g>
        <circle cx="408.1" cy="293.627" r="28.403" style="fill:rgb(127,216,246);"/>
        <circle cx="632.518" cy="293.033" r="20.814" style="fill:rgb(229,164,255);"/>
    </g>
</svg>
